<svg width="31" height="30" viewBox="0 0 31 30" fill="none" xmlns="http://www.w3.org/2000/svg">
<rect x="0.969971" y="0.0281372" width="29.792" height="29.792" fill="#001529"/>
<g clip-path="url(#clip0_18_7481)">
<path d="M15.866 28.4242C15.7714 28.4248 15.6783 28.4006 15.596 28.354L2.63597 21.334C2.59701 21.3133 2.56074 21.2879 2.52797 21.2584C2.47869 21.2161 2.43882 21.164 2.41091 21.1054C2.38301 21.0468 2.3677 20.983 2.36597 20.9182V15.9664C2.36805 15.8808 2.39197 15.7972 2.43544 15.7235C2.47891 15.6498 2.5405 15.5884 2.61437 15.5452C2.69646 15.4978 2.78958 15.4728 2.88437 15.4728C2.97916 15.4728 3.07228 15.4978 3.15437 15.5452L15.866 22.4086L28.5776 15.5398C28.6597 15.4924 28.7528 15.4674 28.8476 15.4674C28.9424 15.4674 29.0355 15.4924 29.1176 15.5398C29.1914 15.583 29.253 15.6444 29.2965 15.7181C29.34 15.7918 29.3639 15.8754 29.366 15.961V20.9182C29.3664 20.9844 29.3527 21.0501 29.3257 21.1106C29.2987 21.1712 29.259 21.2252 29.2094 21.2692C29.1766 21.2987 29.1403 21.3241 29.1014 21.3448L16.1414 28.3648C16.0564 28.4086 15.9614 28.4291 15.866 28.4242ZM3.41357 20.6374L15.866 27.3442L28.3184 20.6374V16.8142L16.136 23.3968C16.0539 23.4441 15.9608 23.4691 15.866 23.4691C15.7712 23.4691 15.6781 23.4441 15.596 23.3968L3.41357 16.8142V20.6374Z" fill="white"/>
<path d="M15.866 21.4041C15.7737 21.4055 15.6826 21.3832 15.6014 21.3393L2.64137 14.3193C2.56064 14.2819 2.49202 14.2226 2.44333 14.1482C2.39465 14.0737 2.36784 13.9871 2.36597 13.8981V8.94093C2.36585 8.85221 2.39058 8.76524 2.43734 8.68984C2.4841 8.61445 2.55104 8.55365 2.63057 8.51433C2.71266 8.46694 2.80578 8.44199 2.90057 8.44199C2.99536 8.44199 3.08848 8.46694 3.17057 8.51433L15.866 15.3885L17.486 14.4975C17.5681 14.4501 17.6612 14.4252 17.756 14.4252C17.8508 14.4252 17.9439 14.4501 18.026 14.4975L22.616 16.9761C22.694 17.0173 22.7596 17.0786 22.8061 17.1536C22.8526 17.2285 22.8783 17.3145 22.8806 17.4027C22.8795 17.4912 22.8542 17.5777 22.8076 17.6528C22.761 17.728 22.6947 17.789 22.616 17.8293L16.136 21.3339C16.0537 21.3806 15.9606 21.4048 15.866 21.4041V21.4041ZM3.41357 13.6119L15.866 20.3241L21.3038 17.3811L17.7668 15.4695L16.1468 16.3551C16.0637 16.3996 15.971 16.4228 15.8768 16.4228C15.7826 16.4228 15.6898 16.3996 15.6068 16.3551L3.41357 9.78873V13.6119Z" fill="white"/>
<path d="M7.46355 18.9255C7.38042 18.9225 7.2991 18.9004 7.22595 18.8608L2.63055 16.3875C2.55221 16.3479 2.4864 16.2872 2.44043 16.2124C2.39445 16.1376 2.37012 16.0515 2.37012 15.9636C2.37012 15.8758 2.39445 15.7897 2.44043 15.7149C2.4864 15.6401 2.55221 15.5794 2.63055 15.5397L4.52595 14.5029C4.60804 14.4556 4.70116 14.4306 4.79595 14.4306C4.89074 14.4306 4.98386 14.4556 5.06595 14.5029L9.65055 16.9815C9.72856 17.0228 9.79419 17.084 9.8407 17.159C9.8872 17.2339 9.9129 17.32 9.91515 17.4081C9.91405 17.4966 9.88882 17.5831 9.8422 17.6583C9.79557 17.7334 9.72931 17.7945 9.65055 17.8347L7.72815 18.8608C7.64694 18.9046 7.55584 18.9269 7.46355 18.9255V18.9255ZM3.93195 15.9609L7.46355 17.8725L8.32755 17.4027L4.79595 15.4911L3.93195 15.9609Z" fill="white"/>
<path d="M24.2683 18.9255C24.176 18.9269 24.0849 18.9046 24.0037 18.8607L15.8659 14.4651L14.2459 15.3507C14.1638 15.3981 14.0707 15.4231 13.9759 15.4231C13.8811 15.4231 13.788 15.3981 13.7059 15.3507L9.11592 12.8721C9.03716 12.8318 8.9709 12.7708 8.92427 12.6956C8.87765 12.6205 8.85242 12.534 8.85132 12.4455C8.85357 12.3573 8.87927 12.2713 8.92577 12.1964C8.97228 12.1214 9.03791 12.0601 9.11592 12.0189L15.5959 8.51434C15.679 8.4699 15.7717 8.44666 15.8659 8.44666C15.9601 8.44666 16.0529 8.4699 16.1359 8.51434L29.0959 15.5343C29.174 15.5749 29.2395 15.6361 29.2852 15.7113C29.331 15.7866 29.3551 15.8729 29.3551 15.9609C29.3542 16.0487 29.329 16.1346 29.2823 16.2089C29.2356 16.2833 29.1692 16.3432 29.0905 16.3821L24.5059 18.8607C24.4328 18.9004 24.3515 18.9225 24.2683 18.9255V18.9255ZM15.8659 13.4067C15.9582 13.4054 16.0493 13.4277 16.1305 13.4715L24.2683 17.8725L27.7945 15.9609L15.8659 9.52414L10.4281 12.4455L13.9651 14.3841L15.5851 13.4985C15.6684 13.4424 15.7656 13.4106 15.8659 13.4067V13.4067Z" fill="white"/>
<path d="M24.2684 11.9056C24.1758 11.9042 24.0849 11.8801 24.0038 11.8354L15.866 7.43984L7.72817 11.8354C7.64608 11.8828 7.55296 11.9078 7.45817 11.9078C7.36338 11.9078 7.27026 11.8828 7.18817 11.8354L2.63057 9.36224C2.55185 9.32333 2.48546 9.26337 2.43875 9.18902C2.39205 9.11467 2.36685 9.02884 2.36597 8.94104C2.36596 8.85301 2.39013 8.76668 2.43584 8.69145C2.48155 8.61622 2.54704 8.55499 2.62517 8.51444L15.5852 1.49444C15.6682 1.45001 15.761 1.42676 15.8552 1.42676C15.9494 1.42676 16.0421 1.45001 16.1252 1.49444L29.0852 8.51444C29.1633 8.55499 29.2288 8.61622 29.2745 8.69145C29.3202 8.76668 29.3444 8.85301 29.3444 8.94104C29.3435 9.02884 29.3183 9.11467 29.2716 9.18902C29.2249 9.26337 29.1585 9.32333 29.0798 9.36224L24.506 11.8354C24.4333 11.8769 24.3519 11.901 24.2684 11.9056ZM15.866 6.38144C15.9583 6.38007 16.0494 6.40238 16.1306 6.44624L24.2684 10.8472L27.7946 8.94104L15.866 2.50424L3.93737 8.98424L7.46357 10.8904L15.6014 6.44624C15.6826 6.40238 15.7737 6.38007 15.866 6.38144V6.38144Z" fill="white"/>
<path d="M26.9414 15.4155C26.8491 15.4169 26.7581 15.3946 26.6768 15.3507L22.0922 12.8721C22.0135 12.8318 21.9472 12.7708 21.9006 12.6956C21.854 12.6205 21.8287 12.534 21.8276 12.4455C21.8299 12.3573 21.8556 12.2713 21.9021 12.1964C21.9486 12.1214 22.0142 12.0601 22.0922 12.0189L28.5722 8.51433C28.6543 8.46694 28.7474 8.44199 28.8422 8.44199C28.937 8.44199 29.0301 8.46694 29.1122 8.51433C29.1918 8.55365 29.2587 8.61445 29.3055 8.68984C29.3522 8.76524 29.377 8.85221 29.3768 8.94093V13.8981C29.376 13.9859 29.3508 14.0718 29.3041 14.1461C29.2573 14.2205 29.1909 14.2804 29.1122 14.3193L27.206 15.3507C27.1248 15.3946 27.0337 15.4169 26.9414 15.4155ZM23.426 12.4455L26.9414 14.3841L28.3184 13.6389V9.78873L23.426 12.4455Z" fill="white"/>
</g>
<defs>
<clipPath id="clip0_18_7481">
<rect width="27" height="27" fill="white" transform="translate(2.36597 1.42413)"/>
</clipPath>
</defs>
</svg>
