<svg width="27" height="28" viewBox="0 0 27 28" fill="none" xmlns="http://www.w3.org/2000/svg">
<g clip-path="url(#clip0_15_7201)">
<path d="M13.5 27.5C13.4054 27.5007 13.3123 27.4765 13.23 27.4298L0.27 20.4098C0.231048 20.3891 0.194777 20.3637 0.162 20.3342C0.112724 20.292 0.0728492 20.2399 0.0449462 20.1813C0.0170432 20.1227 0.0017319 20.0589 0 19.994L0 15.0422C0.00208502 14.9567 0.0259992 14.8731 0.069473 14.7993C0.112947 14.7256 0.174538 14.6642 0.2484 14.621C0.33049 14.5736 0.42361 14.5487 0.5184 14.5487C0.61319 14.5487 0.70631 14.5736 0.7884 14.621L13.5 21.4844L26.2116 14.6156C26.2937 14.5682 26.3868 14.5433 26.4816 14.5433C26.5764 14.5433 26.6695 14.5682 26.7516 14.6156C26.8255 14.6588 26.8871 14.7202 26.9305 14.7939C26.974 14.8677 26.9979 14.9513 27 15.0368V19.994C27.0005 20.0603 26.9867 20.1259 26.9597 20.1865C26.9327 20.247 26.893 20.3011 26.8434 20.345C26.8106 20.3745 26.7744 20.3999 26.7354 20.4206L13.7754 27.4406C13.6905 27.4844 13.5954 27.5049 13.5 27.5ZM1.0476 19.7132L13.5 26.42L25.9524 19.7132V15.89L13.77 22.4726C13.6879 22.52 13.5948 22.545 13.5 22.545C13.4052 22.545 13.3121 22.52 13.23 22.4726L1.0476 15.89V19.7132Z" fill="white"/>
<path d="M13.5 20.48C13.4077 20.4814 13.3166 20.4591 13.2354 20.4152L0.2754 13.3952C0.194669 13.3578 0.126055 13.2985 0.0773671 13.224C0.0286793 13.1496 0.00187342 13.0629 3.98675e-07 12.974V8.0168C-0.000114502 7.92808 0.0246089 7.8411 0.071372 7.76571C0.118135 7.69031 0.18507 7.62952 0.2646 7.5902C0.346691 7.5428 0.439811 7.51785 0.5346 7.51785C0.62939 7.51785 0.72251 7.5428 0.8046 7.5902L13.5 14.4644L15.12 13.5734C15.2021 13.526 15.2952 13.5011 15.39 13.5011C15.4848 13.5011 15.5779 13.526 15.66 13.5734L20.25 16.052C20.328 16.0932 20.3936 16.1544 20.4401 16.2294C20.4867 16.3044 20.5123 16.3904 20.5146 16.4786C20.5135 16.5671 20.4883 16.6535 20.4416 16.7287C20.395 16.8039 20.3288 16.8649 20.25 16.9052L13.77 20.4098C13.6877 20.4564 13.5946 20.4807 13.5 20.48V20.48ZM1.0476 12.6878L13.5 19.4L18.9378 16.457L15.4008 14.5454L13.7808 15.431C13.6977 15.4754 13.605 15.4987 13.5108 15.4987C13.4166 15.4987 13.3239 15.4754 13.2408 15.431L1.0476 8.8646V12.6878Z" fill="white"/>
<path d="M5.09759 18.0014C5.01445 17.9984 4.93314 17.9762 4.85999 17.9366L0.264586 15.4634C0.186244 15.4237 0.120434 15.3631 0.0744608 15.2883C0.0284877 15.2134 0.00415039 15.1273 0.00415039 15.0395C0.00415039 14.9517 0.0284877 14.8656 0.0744608 14.7908C0.120434 14.7159 0.186244 14.6553 0.264586 14.6156L2.15999 13.5788C2.24208 13.5314 2.3352 13.5065 2.42999 13.5065C2.52478 13.5065 2.6179 13.5314 2.69999 13.5788L7.28459 16.0574C7.3626 16.0986 7.42823 16.1599 7.47473 16.2348C7.52123 16.3098 7.54693 16.3958 7.54918 16.484C7.54808 16.5725 7.52286 16.6589 7.47623 16.7341C7.4296 16.8093 7.36334 16.8703 7.28459 16.9106L5.36219 17.9366C5.28097 17.9805 5.18987 18.0028 5.09759 18.0014V18.0014ZM1.56599 15.0368L5.09759 16.9484L5.96159 16.4786L2.42999 14.567L1.56599 15.0368Z" fill="white"/>
<path d="M21.9024 18.0014C21.8101 18.0028 21.719 17.9805 21.6378 17.9366L13.5 13.541L11.88 14.4266C11.7979 14.474 11.7047 14.4989 11.61 14.4989C11.5152 14.4989 11.422 14.474 11.34 14.4266L6.74995 11.948C6.6712 11.9077 6.60494 11.8467 6.55831 11.7715C6.51168 11.6963 6.48645 11.6099 6.48535 11.5214C6.4876 11.4332 6.5133 11.3472 6.55981 11.2722C6.60631 11.1972 6.67194 11.136 6.74995 11.0948L13.23 7.5902C13.313 7.54577 13.4058 7.52252 13.5 7.52252C13.5941 7.52252 13.6869 7.54577 13.77 7.5902L26.73 14.6102C26.8081 14.6508 26.8736 14.712 26.9193 14.7872C26.965 14.8624 26.9892 14.9488 26.9892 15.0368C26.9883 15.1246 26.9631 15.2104 26.9164 15.2848C26.8697 15.3591 26.8033 15.4191 26.7246 15.458L22.14 17.9366C22.0668 17.9762 21.9855 17.9984 21.9024 18.0014V18.0014ZM13.5 12.4826C13.5922 12.4812 13.6833 12.5035 13.7646 12.5474L21.9024 16.9484L25.4286 15.0368L13.5 8.6L8.06215 11.5214L11.5992 13.46L13.2192 12.5744C13.3024 12.5183 13.3996 12.4865 13.5 12.4826V12.4826Z" fill="white"/>
<path d="M21.9024 10.9815C21.8098 10.9801 21.7189 10.956 21.6378 10.9113L13.5 6.51571L5.3622 10.9113C5.28011 10.9587 5.18699 10.9837 5.0922 10.9837C4.99741 10.9837 4.90429 10.9587 4.8222 10.9113L0.2646 8.43811C0.185888 8.3992 0.119495 8.33924 0.0727877 8.26489C0.0260807 8.19054 0.000886228 8.1047 1.2157e-09 8.01691C-6.25875e-06 7.92888 0.0241632 7.84254 0.0698715 7.76731C0.11558 7.69209 0.181071 7.63086 0.2592 7.59031L13.2192 0.570305C13.3023 0.525872 13.395 0.502625 13.4892 0.502625C13.5834 0.502625 13.6761 0.525872 13.7592 0.570305L26.7192 7.59031C26.7973 7.63086 26.8628 7.69209 26.9085 7.76731C26.9542 7.84254 26.9784 7.92888 26.9784 8.01691C26.9775 8.1047 26.9523 8.19054 26.9056 8.26489C26.8589 8.33924 26.7925 8.3992 26.7138 8.43811L22.14 10.9113C22.0673 10.9528 21.986 10.9768 21.9024 10.9815ZM13.5 5.45731C13.5923 5.45594 13.6834 5.47825 13.7646 5.52211L21.9024 9.92311L25.4286 8.01691L13.5 1.58011L1.5714 8.06011L5.0976 9.96631L13.2354 5.52211C13.3166 5.47825 13.4077 5.45594 13.5 5.45731V5.45731Z" fill="white"/>
<path d="M24.5755 14.4914C24.4832 14.4928 24.3921 14.4705 24.3109 14.4266L19.7263 11.948C19.6475 11.9077 19.5813 11.8467 19.5346 11.7715C19.488 11.6963 19.4628 11.6099 19.4617 11.5214C19.4639 11.4332 19.4896 11.3472 19.5361 11.2722C19.5826 11.1972 19.6483 11.136 19.7263 11.0948L26.2063 7.5902C26.2884 7.5428 26.3815 7.51785 26.4763 7.51785C26.5711 7.51785 26.6642 7.5428 26.7463 7.5902C26.8258 7.62952 26.8927 7.69031 26.9395 7.76571C26.9863 7.8411 27.011 7.92808 27.0109 8.0168V12.974C27.01 13.0618 26.9848 13.1476 26.9381 13.222C26.8914 13.2963 26.825 13.3563 26.7463 13.3952L24.8401 14.4266C24.7589 14.4705 24.6678 14.4928 24.5755 14.4914ZM21.0601 11.5214L24.5755 13.46L25.9525 12.7148V8.8646L21.0601 11.5214Z" fill="white"/>
</g>
<defs>
<clipPath id="clip0_15_7201">
<rect width="27" height="27" fill="white" transform="translate(0 0.5)"/>
</clipPath>
</defs>
</svg>
